<mxfile host="Electron" modified="2024-03-15T14:46:56.293Z" agent="Mozilla/5.0 (Windows NT 10.0; Win64; x64) AppleWebKit/537.36 (KHTML, like Gecko) draw.io/24.0.4 Chrome/120.0.6099.109 Electron/28.1.0 Safari/537.36" etag="CdfuT-32FPRxc4lTPJWw" version="24.0.4" type="device">
  <diagram name="第 1 页" id="BuugSCPTgj82rPfLXVjD">
    <mxGraphModel dx="1834" dy="836" grid="1" gridSize="10" guides="1" tooltips="1" connect="1" arrows="1" fold="1" page="0" pageScale="1" pageWidth="827" pageHeight="1169" math="0" shadow="0">
      <root>
        <mxCell id="0" />
        <mxCell id="1" parent="0" />
        <mxCell id="DrauTv31qS0KRYt-tLEg-20" value="&lt;font style=&quot;font-size: 15px;&quot;&gt;&lt;b&gt;PC&lt;/b&gt;&lt;/font&gt;" style="rounded=0;whiteSpace=wrap;html=1;strokeWidth=3;dashed=1;verticalAlign=top;" vertex="1" parent="1">
          <mxGeometry x="-280" y="330" width="458" height="504" as="geometry" />
        </mxCell>
        <mxCell id="DrauTv31qS0KRYt-tLEg-21" value="&lt;font style=&quot;font-size: 15px;&quot;&gt;&lt;b&gt;IDE工具&lt;/b&gt;&lt;/font&gt;" style="rounded=0;whiteSpace=wrap;html=1;verticalAlign=top;fillColor=#d5e8d4;strokeColor=#82b366;" vertex="1" parent="1">
          <mxGeometry x="-251" y="356" width="400" height="375" as="geometry" />
        </mxCell>
        <mxCell id="DrauTv31qS0KRYt-tLEg-22" style="edgeStyle=orthogonalEdgeStyle;rounded=0;orthogonalLoop=1;jettySize=auto;html=1;exitX=0.25;exitY=1;exitDx=0;exitDy=0;entryX=0.5;entryY=0;entryDx=0;entryDy=0;shape=flexArrow;startArrow=block;fillColor=#e1d5e7;strokeColor=#9673a6;" edge="1" parent="1" source="DrauTv31qS0KRYt-tLEg-24" target="DrauTv31qS0KRYt-tLEg-42">
          <mxGeometry relative="1" as="geometry" />
        </mxCell>
        <mxCell id="DrauTv31qS0KRYt-tLEg-23" style="edgeStyle=orthogonalEdgeStyle;rounded=0;orthogonalLoop=1;jettySize=auto;html=1;exitX=0.75;exitY=1;exitDx=0;exitDy=0;shape=flexArrow;startArrow=block;fillColor=#e1d5e7;strokeColor=#9673a6;" edge="1" parent="1" source="DrauTv31qS0KRYt-tLEg-24" target="DrauTv31qS0KRYt-tLEg-41">
          <mxGeometry relative="1" as="geometry">
            <Array as="points">
              <mxPoint x="380" y="724" />
              <mxPoint x="428" y="724" />
            </Array>
          </mxGeometry>
        </mxCell>
        <mxCell id="DrauTv31qS0KRYt-tLEg-24" value="&lt;b style=&quot;font-size: 15px;&quot;&gt;&lt;font style=&quot;font-size: 15px;&quot;&gt;瑞萨 RA系列MCU&lt;/font&gt;&lt;/b&gt;" style="rounded=0;whiteSpace=wrap;html=1;fillColor=#d5e8d4;strokeColor=#82b366;fontSize=15;" vertex="1" parent="1">
          <mxGeometry x="290" y="629.5" width="120" height="60" as="geometry" />
        </mxCell>
        <mxCell id="DrauTv31qS0KRYt-tLEg-25" style="edgeStyle=orthogonalEdgeStyle;rounded=0;orthogonalLoop=1;jettySize=auto;html=1;exitX=1;exitY=0.5;exitDx=0;exitDy=0;entryX=0;entryY=0.5;entryDx=0;entryDy=0;fontSize=15;" edge="1" parent="1" source="DrauTv31qS0KRYt-tLEg-26" target="DrauTv31qS0KRYt-tLEg-32">
          <mxGeometry relative="1" as="geometry" />
        </mxCell>
        <mxCell id="DrauTv31qS0KRYt-tLEg-26" value="&lt;font style=&quot;font-size: 15px;&quot;&gt;测试工程 .c/.h&lt;/font&gt;" style="rounded=0;whiteSpace=wrap;html=1;verticalAlign=top;fontStyle=1;fillColor=#fff2cc;strokeColor=#d6b656;fontSize=15;" vertex="1" parent="1">
          <mxGeometry x="-233.5" y="442.5" width="223.5" height="213" as="geometry" />
        </mxCell>
        <mxCell id="DrauTv31qS0KRYt-tLEg-27" value="驱动&lt;div style=&quot;font-size: 15px;&quot;&gt;（driver）&lt;/div&gt;" style="rounded=0;whiteSpace=wrap;html=1;fontSize=15;fontStyle=1;fillColor=#f5f5f5;strokeColor=#666666;fontColor=#333333;" vertex="1" parent="1">
          <mxGeometry x="-220" y="570" width="100" height="60" as="geometry" />
        </mxCell>
        <mxCell id="DrauTv31qS0KRYt-tLEg-28" value="&lt;font style=&quot;font-size: 15px;&quot;&gt;测试样例&lt;/font&gt;&lt;div style=&quot;font-size: 15px;&quot;&gt;&lt;font style=&quot;font-size: 15px;&quot;&gt;(test case)&lt;/font&gt;&lt;/div&gt;" style="rounded=0;whiteSpace=wrap;html=1;fontStyle=1;fillColor=#f5f5f5;strokeColor=#666666;fontColor=#333333;fontSize=15;" vertex="1" parent="1">
          <mxGeometry x="-220" y="479.5" width="100" height="60" as="geometry" />
        </mxCell>
        <mxCell id="DrauTv31qS0KRYt-tLEg-29" style="edgeStyle=orthogonalEdgeStyle;rounded=0;orthogonalLoop=1;jettySize=auto;html=1;exitX=1;exitY=0.5;exitDx=0;exitDy=0;entryX=0;entryY=0.5;entryDx=0;entryDy=0;shape=flexArrow;startArrow=block;fillColor=#e1d5e7;strokeColor=#9673a6;" edge="1" parent="1" source="DrauTv31qS0KRYt-tLEg-30" target="DrauTv31qS0KRYt-tLEg-36">
          <mxGeometry relative="1" as="geometry" />
        </mxCell>
        <mxCell id="DrauTv31qS0KRYt-tLEg-30" value="可执行文件 .hex/.elf/.bin&lt;div style=&quot;font-size: 15px;&quot;&gt;(&lt;span style=&quot;color: rgb(13, 13, 13); font-family: Söhne, ui-sans-serif, system-ui, -apple-system, &amp;quot;Segoe UI&amp;quot;, Roboto, Ubuntu, Cantarell, &amp;quot;Noto Sans&amp;quot;, sans-serif, &amp;quot;Helvetica Neue&amp;quot;, Arial, &amp;quot;Apple Color Emoji&amp;quot;, &amp;quot;Segoe UI Emoji&amp;quot;, &amp;quot;Segoe UI Symbol&amp;quot;, &amp;quot;Noto Color Emoji&amp;quot;; text-align: start; white-space-collapse: preserve; font-size: 15px;&quot;&gt;&lt;font style=&quot;font-size: 15px;&quot;&gt;firmware&lt;/font&gt;&lt;/span&gt;)&lt;/div&gt;" style="rounded=0;whiteSpace=wrap;html=1;fontSize=15;fontStyle=1;fillColor=#fff2cc;strokeColor=#d6b656;" vertex="1" parent="1">
          <mxGeometry x="16.5" y="658" width="120" height="60" as="geometry" />
        </mxCell>
        <mxCell id="DrauTv31qS0KRYt-tLEg-31" style="edgeStyle=orthogonalEdgeStyle;rounded=0;orthogonalLoop=1;jettySize=auto;html=1;exitX=0.5;exitY=1;exitDx=0;exitDy=0;entryX=0.5;entryY=0;entryDx=0;entryDy=0;fontSize=15;" edge="1" parent="1" source="DrauTv31qS0KRYt-tLEg-32" target="DrauTv31qS0KRYt-tLEg-30">
          <mxGeometry relative="1" as="geometry" />
        </mxCell>
        <mxCell id="DrauTv31qS0KRYt-tLEg-32" value="" style="shape=orEllipse;perimeter=ellipsePerimeter;whiteSpace=wrap;html=1;backgroundOutline=1;fontSize=15;" vertex="1" parent="1">
          <mxGeometry x="51.5" y="524" width="50" height="50" as="geometry" />
        </mxCell>
        <mxCell id="DrauTv31qS0KRYt-tLEg-33" style="edgeStyle=orthogonalEdgeStyle;rounded=0;orthogonalLoop=1;jettySize=auto;html=1;exitX=0.5;exitY=1;exitDx=0;exitDy=0;entryX=0.5;entryY=0;entryDx=0;entryDy=0;fontSize=15;" edge="1" parent="1" source="DrauTv31qS0KRYt-tLEg-34" target="DrauTv31qS0KRYt-tLEg-32">
          <mxGeometry relative="1" as="geometry" />
        </mxCell>
        <mxCell id="DrauTv31qS0KRYt-tLEg-34" value="编译器，链接器" style="rounded=0;whiteSpace=wrap;html=1;fontSize=15;fontStyle=1;fillColor=#fff2cc;strokeColor=#d6b656;" vertex="1" parent="1">
          <mxGeometry x="16.5" y="381" width="120" height="60" as="geometry" />
        </mxCell>
        <mxCell id="DrauTv31qS0KRYt-tLEg-35" style="edgeStyle=orthogonalEdgeStyle;rounded=0;orthogonalLoop=1;jettySize=auto;html=1;exitX=0.5;exitY=1;exitDx=0;exitDy=0;entryX=0.5;entryY=0;entryDx=0;entryDy=0;" edge="1" parent="1" source="DrauTv31qS0KRYt-tLEg-36" target="DrauTv31qS0KRYt-tLEg-24">
          <mxGeometry relative="1" as="geometry" />
        </mxCell>
        <mxCell id="DrauTv31qS0KRYt-tLEg-36" value="&lt;b&gt;Jlink仿真器&lt;/b&gt;" style="rounded=0;whiteSpace=wrap;html=1;fillColor=#d5e8d4;strokeColor=#82b366;fontSize=15;" vertex="1" parent="1">
          <mxGeometry x="290" y="506" width="120" height="60" as="geometry" />
        </mxCell>
        <mxCell id="DrauTv31qS0KRYt-tLEg-37" value="&lt;b style=&quot;font-size: 15px;&quot;&gt;&lt;font style=&quot;font-size: 15px;&quot;&gt;2.烧录&lt;/font&gt;&lt;/b&gt;" style="text;html=1;align=center;verticalAlign=middle;whiteSpace=wrap;rounded=0;fontSize=15;fillColor=#f5f5f5;fontColor=#333333;strokeColor=#666666;" vertex="1" parent="1">
          <mxGeometry x="304.75" y="583" width="90.5" height="30" as="geometry" />
        </mxCell>
        <mxCell id="DrauTv31qS0KRYt-tLEg-38" value="&lt;b style=&quot;font-size: 15px;&quot;&gt;&lt;font style=&quot;font-size: 15px;&quot;&gt;1.编译，链接&lt;/font&gt;&lt;/b&gt;" style="text;html=1;align=center;verticalAlign=middle;whiteSpace=wrap;rounded=0;fontSize=15;fillColor=#f5f5f5;strokeColor=#666666;fontColor=#333333;" vertex="1" parent="1">
          <mxGeometry x="31.25" y="599.5" width="90.5" height="30" as="geometry" />
        </mxCell>
        <mxCell id="DrauTv31qS0KRYt-tLEg-39" style="edgeStyle=orthogonalEdgeStyle;rounded=0;orthogonalLoop=1;jettySize=auto;html=1;exitX=1;exitY=0.5;exitDx=0;exitDy=0;entryX=0;entryY=0.5;entryDx=0;entryDy=0;shape=flexArrow;startArrow=block;fillColor=#e1d5e7;strokeColor=#9673a6;" edge="1" parent="1" source="DrauTv31qS0KRYt-tLEg-40" target="DrauTv31qS0KRYt-tLEg-42">
          <mxGeometry relative="1" as="geometry" />
        </mxCell>
        <mxCell id="DrauTv31qS0KRYt-tLEg-40" value="Greentea - pc" style="rounded=0;whiteSpace=wrap;html=1;fontSize=15;fontStyle=1;fillColor=#f8cecc;strokeColor=#b85450;" vertex="1" parent="1">
          <mxGeometry x="-251" y="757" width="400" height="60" as="geometry" />
        </mxCell>
        <mxCell id="DrauTv31qS0KRYt-tLEg-41" value="Macronix&lt;div&gt;Flash&lt;/div&gt;" style="rounded=0;whiteSpace=wrap;html=1;fillColor=#d5e8d4;strokeColor=#82b366;fontSize=15;fontStyle=1" vertex="1" parent="1">
          <mxGeometry x="373" y="757" width="120" height="60" as="geometry" />
        </mxCell>
        <mxCell id="DrauTv31qS0KRYt-tLEg-42" value="UART转串口模块" style="rounded=0;whiteSpace=wrap;html=1;fillColor=#d5e8d4;strokeColor=#82b366;fontSize=15;fontStyle=1" vertex="1" parent="1">
          <mxGeometry x="211" y="757" width="120" height="60" as="geometry" />
        </mxCell>
        <mxCell id="DrauTv31qS0KRYt-tLEg-43" value="" style="endArrow=classic;html=1;rounded=0;" edge="1" parent="1">
          <mxGeometry width="50" height="50" relative="1" as="geometry">
            <mxPoint x="251.5" y="366" as="sourcePoint" />
            <mxPoint x="335.5" y="366" as="targetPoint" />
          </mxGeometry>
        </mxCell>
        <mxCell id="DrauTv31qS0KRYt-tLEg-44" value="" style="shape=flexArrow;endArrow=classic;html=1;rounded=0;fillColor=#e1d5e7;strokeColor=#9673a6;" edge="1" parent="1">
          <mxGeometry width="50" height="50" relative="1" as="geometry">
            <mxPoint x="250.5" y="411.5" as="sourcePoint" />
            <mxPoint x="339.5" y="411.5" as="targetPoint" />
          </mxGeometry>
        </mxCell>
        <mxCell id="DrauTv31qS0KRYt-tLEg-45" value="流程" style="text;html=1;align=center;verticalAlign=middle;whiteSpace=wrap;rounded=0;fontSize=15;fontStyle=1" vertex="1" parent="1">
          <mxGeometry x="365.5" y="349" width="80" height="30" as="geometry" />
        </mxCell>
        <mxCell id="DrauTv31qS0KRYt-tLEg-46" value="物理接线" style="text;html=1;align=center;verticalAlign=middle;whiteSpace=wrap;rounded=0;fontSize=15;fontStyle=1" vertex="1" parent="1">
          <mxGeometry x="365.5" y="397" width="80" height="30" as="geometry" />
        </mxCell>
        <mxCell id="DrauTv31qS0KRYt-tLEg-47" value="&lt;b style=&quot;font-size: 15px;&quot;&gt;&lt;font style=&quot;font-size: 15px;&quot;&gt;3.收集报告&lt;/font&gt;&lt;/b&gt;" style="text;html=1;align=center;verticalAlign=middle;whiteSpace=wrap;rounded=0;fontSize=15;fillColor=#f5f5f5;fontColor=#333333;strokeColor=#666666;" vertex="1" parent="1">
          <mxGeometry x="29" y="772" width="90.5" height="30" as="geometry" />
        </mxCell>
        <mxCell id="DrauTv31qS0KRYt-tLEg-48" value="Greentea" style="rounded=0;whiteSpace=wrap;html=1;fontStyle=1;fillColor=#f8cecc;strokeColor=#b85450;fontSize=15;" vertex="1" parent="1">
          <mxGeometry x="-100" y="479.5" width="70" height="150.5" as="geometry" />
        </mxCell>
      </root>
    </mxGraphModel>
  </diagram>
</mxfile>
